<svg xmlns="http://www.w3.org/2000/svg" viewBox="0 0 24 24" id="code-cademy"><path fill="#1B3C4D" d="M.153 21.462H16.344a.17.17 0 0 0 .129-.059c.017-.018.037-.053.037-.113V2.667a1.018 1.018 0 0 0-.047-.119h-.001l-.01.001v-.015a.218.218 0 0 0-.115-.034H.096C.04 2.516 0 2.573 0 2.649v18.664c0 .052.021.097.056.13.022.019.059.019.097.019zM1.82 4.47c0-.076.04-.129.096-.149h12.639c.059.016.098.076.098.149v15.035c0 .077-.038.134-.096.153H1.915c-.058-.017-.096-.079-.096-.152l-.002-.001L1.82 4.47zM24 19.836c0-.104-.057-.165-.173-.165v-.011h-5.595c-.094 0-.17.058-.17.17v1.502c0 .093.058.168.172.168h5.594c.096 0 .172-.044.172-.163v-1.501z"></path><path fill="#1B3C4D" d="M6.948 17.783c1.2 0 2.115-.476 2.745-1.205.045-.073.06-.164-.015-.224l-1.037-.907c-.073-.047-.163-.047-.224.027-.39.446-.795.684-1.454.684-.706 0-1.245-.342-1.47-1.026-.136-.386-.166-.862-.166-1.47 0-.61.045-1.058.18-1.458.24-.653.766-.998 1.486-.998.65 0 1.014.175 1.396.613.058.074.153.093.23.035l1.034-.912c.075-.044.058-.163.02-.222-.635-.757-1.554-1.233-2.74-1.233-1.59 0-2.79.788-3.255 2.186-.165.491-.24 1.116-.24 1.961 0 .847.075 1.471.255 1.962.465 1.415 1.665 2.187 3.255 2.187z"></path></svg>